PathFileType        4      (X/Y/Z)      C:\Users\pc\Desktop\IMUTRC\Sujet_07\Sujet_07_velo_80.trc         
DataRate	CameraRate	NumFrames	NumMarkers	Units	OrigDataRate	OrigDataStartFrame	OrigNumFrames
60.0	60.0	4	64	mm	60.0	235	936
Frame#	Time	pHipOrigin			pRightASI			pLeftASI			pRightCSI			pLeftCSI			pRightIschialTub			pLeftIschialTub			pSacrum			pL5SpinalProcess			pL3SpinalProcess			pT12SpinalProcess			pIJ			pT4SpinalProcess			pT8SpinalProcess			pPX			pC7SpinalProcess			pTopOfHead			pRightAuricularis			pLeftAuricularis			pBackOfHead			pRightAcromion			pLeftAcromion			pRightArmLatEpicondyle			pRightArmMedEpicondyle			pLeftArmLatEpicondyle			pLeftArmMedEpicondyle			pRightUlnarStyloid			pRightRadialStyloid			pRightOlecranon			pLeftUlnarStyloid			pLeftRadialStyloid			pLeftOlecranon			pRightTopOfHand			pRightPinky			pRightBallHand			pLeftTopOfHand			pLeftPinky			pLeftBallHand			pRightGreaterTrochanter			pRightKneeLatEpicondyle			pRightKneeMedEpicondyle			pRightPatella			pLeftGreaterTrochanter			pLeftKneeLatEpicondyle			pLeftKneeMedEpicondyle			pLeftPatella			pRightTibialTub			pRightLatMalleolus			pRightMedMalleolus			pLeftTibialTub			pLeftLatMalleolus			pLeftMedMalleolus			pRightHeelFoot			pRightFirstMetatarsal			pRightFifthMetatarsal			pRightPivotFoot			pRightHeelCenter			pRightToe			pLeftHeelFoot			pLeftFirstMetatarsal			pLeftFifthMetatarsal			pLeftPivotFoot			pLeftHeelCenter			pLeftToe			
		X1	Y1	Z1	X2	Y2	Z2	X3	Y3	Z3	X4	Y4	Z4	X5	Y5	Z5	X6	Y6	Z6	X7	Y7	Z7	X8	Y8	Z8	X9	Y9	Z9	X10	Y10	Z10	X11	Y11	Z11	X12	Y12	Z12	X13	Y13	Z13	X14	Y14	Z14	X15	Y15	Z15	X16	Y16	Z16	X17	Y17	Z17	X18	Y18	Z18	X19	Y19	Z19	X20	Y20	Z20	X21	Y21	Z21	X22	Y22	Z22	X23	Y23	Z23	X24	Y24	Z24	X25	Y25	Z25	X26	Y26	Z26	X27	Y27	Z27	X28	Y28	Z28	X29	Y29	Z29	X30	Y30	Z30	X31	Y31	Z31	X32	Y32	Z32	X33	Y33	Z33	X34	Y34	Z34	X35	Y35	Z35	X36	Y36	Z36	X37	Y37	Z37	X38	Y38	Z38	X39	Y39	Z39	X40	Y40	Z40	X41	Y41	Z41	X42	Y42	Z42	X43	Y43	Z43	X44	Y44	Z44	X45	Y45	Z45	X46	Y46	Z46	X47	Y47	Z47	X48	Y48	Z48	X49	Y49	Z49	X50	Y50	Z50	X51	Y51	Z51	X52	Y52	Z52	X53	Y53	Z53	X54	Y54	Z54	X55	Y55	Z55	X56	Y56	Z56	X57	Y57	Z57	X58	Y58	Z58	X59	Y59	Z59	X60	Y60	Z60	X61	Y61	Z61	X62	Y62	Z62	X63	Y63	Z63	X64	Y64	Z64	
235	3.9	0.0	1249.97763	7.653905517926474E-14	141.03354977023096	1317.25499	107.40656622616606	59.15620486868324	1322.89857	-164.68939241551277	117.97524279791794	1400.34921	89.72084543873191	50.601635629491696	1404.95318	-134.12984385636713	-56.676612059267235	1215.52212	77.37465168752189	-90.34982512023784	1217.89836	-34.49997243678513	-53.995430361551925	1296.90842	17.186048762755185	20.19339203752869	1380.44818	-4.97592098615643	104.83224624878994	1466.95825	-28.307156774475974	184.84209258453413	1543.44354	-50.452415733763495	447.59136119958725	1518.12171	-107.97247862659817	356.1451838776865	1645.91898	-94.83085334711329	273.19434809914134	1607.45356	-74.12633124837072	336.6536694419626	1460.72061	-79.93198002797722	410.1166189704133	1669.38438	-106.62880108512194	683.5274608997153	1664.92892	-138.35773064685628	589.0989695183041	1641.24076	-59.45642589217216	576.4564506628222	1656.3893	-203.00480089883004	574.375521540286	1704.73098	-124.54888593164746	445.3892679137348	1602.77534	78.3667588275046	375.15342447477997	1607.89911	-284.5860718237726	468.7398451983501	1315.25004	71.78383258448716	436.39197702160965	1312.87379	15.980083783142101	387.9033031159927	1310.05201	-283.05560942069025	354.27067100836115	1304.85398	-228.2180218180001	546.7648270815189	1068.04659	44.4625797031975	595.9347526901574	1090.17535	39.49595034465353	427.64376435947634	1307.15596	48.65721258937429	441.8002412709946	1053.93766	-255.36800467755114	491.36882690625885	1070.79412	-269.19347345715767	346.31202057451645	1303.44308	-250.819454906901	737.127480357644	1039.97723	144.2505723653307	659.2354955040414	1014.1356	96.19278763415593	605.3098160527707	1050.22478	50.139104276429926	580.8388576719544	989.03654	-407.37791249809305	525.3350877105444	980.12563	-330.6980429133156	493.8598353243134	1028.91286	-276.32980659930996	54.4552302347032	1223.98749	169.14661449563332	232.90546591032816	817.94711	147.58705968281058	221.6591635210218	810.22432	62.80858681837237	268.7491122283355	836.28873	94.71196313149261	-27.574235832682064	1242.25485	-176.34936255790834	348.1761832920911	1041.23961	-301.27607944731596	380.1973156308432	1036.93267	-221.7380475739214	383.3501191505135	1083.19514	-263.7336034562723	277.81915082826106	771.7589	107.66563544981072	137.63164017037286	387.1047	170.18014649587656	141.04421266748662	380.79281	105.01185754636336	393.0769562266321	988.66525	-270.0363994690545	130.395763696654	670.69435	-231.94120781435012	150.53788216395822	668.31811	-169.5509603717924	58.63555529014456	340.0254	132.20305910745563	195.73546773847482	245.27275	101.17508503370279	190.74002127588187	244.60443	180.52065211340403	211.68670416825034	231.90638	140.82409309378798	94.37252199851955	320.49566	134.31483706015263	285.961101790489	177.1043	144.94958271049745	75.61791590320401	607.05561	-181.76625230682004	233.30059244833024	546.90698	-197.65243955642796	207.6705624376705	550.69412	-272.81460537845027	240.61501540591433	540.74361	-241.36105174701194	112.90596552568604	597.17936	-194.96480876810838	321.2827114847976	506.2881	-270.58633988516243	
236	3.917	0.0	1249.97763	7.653905517926474E-14	140.69938977023097	1317.10648	107.98534832402328	59.809241966540455	1322.89857	-164.48384584822875	117.742523844403	1400.20069	90.2724464901041	51.21754272734891	1404.95318	-133.85998624259813	-56.99815863143836	1215.52212	77.1890066875219	-90.2928022132079	1217.97262	-34.89577900895625	-53.985481408036954	1296.98267	17.020296669785125	20.34918651672975	1380.44818	-4.800224939671398	105.1438438674461	1466.88399	-27.955759681505914	185.33667072887636	1543.22077	-49.823890208077394	448.1575298696156	1517.60191	-106.873891528741	356.7856075477149	1645.5477	-93.86087968197215	273.7804096761996	1607.15653	-73.35923967619958	337.0640349725358	1460.34932	-79.00909397660506	410.78422868692667	1668.93883	-105.55739503374973	684.2593730024597	1664.63189	-137.24919959548407	589.8308816210484	1640.86947	-58.34789484079995	577.1512327655666	1655.94376	-201.83195880097279	574.9788115500603	1704.28543	-123.51461488027535	445.92825553727806	1602.32979	79.3639048788768	376.1253350102404	1607.60208	-283.59621025160146	469.5930912546094	1314.87875	72.53368706368823	437.06952203138394	1312.42825	16.885741401798267	388.89511521873703	1309.82923	-282.39723837420524	355.26248811110554	1304.6312	-227.55965943176912	547.6923281377782	1067.74956	45.08382074968254	596.7979426999318	1089.87832	40.08006139113852	428.35844802950464	1306.78467	49.498564161545424	442.977698373739	1053.71488	-255.03118020323726	492.5091540090032	1070.64561	-268.79233793635876	347.3409626772608	1303.14605	-250.22539490690102	738.1292414139034	1039.60595	144.7431913188457	660.2001352205548	1013.76431	96.74972263415594	606.2373171090301	1049.85349	50.760345322914965	581.9791934349528	988.88803	-406.97677197729416	526.4754198132887	979.97712	-330.29691605277077	495.00016242705783	1028.76434	-275.92867107851106	53.40372575061498	1223.76471	169.4827336864606	239.62219985187883	821.21444	147.09195523512236	229.65746874636986	814.01146	62.02445579362588	275.8589869279975	840.66992	94.87257891622957	-27.371358739711994	1241.58653	-176.40371599062436	347.8022288177772	1038.6406	-300.03431129808655	379.82336115652924	1034.92772	-220.49627942469203	383.0975072899686	1080.8189	-262.850506879214	282.7942131878663	773.31831	107.36541467215086	122.64141944107729	397.05521	173.27263041568872	125.35387088681883	390.22352	108.12886669860067	395.52603199940484	987.69991	-269.8228631390828	148.41988652869395	656.88244	-237.9123243213056	168.53482394951314	654.35769	-175.62351792523287	41.75977164404472	352.94622	136.7792738000405	175.12638122174505	252.77276	106.42546997826142	170.76673476403926	253.58959	185.70939914604557	190.8747355585505	239.48066	146.1288401313167	76.79662230104753	332.22836	138.9155683249086	263.19464421261284	182.0053	150.6693239437406	96.48495688936052	590.19915	-189.09708749846524	256.76788002131934	537.55053	-205.6256539486748	231.1007200106596	541.33767	-280.723508724212	264.4509235045895	532.3525	-249.37867561845982	134.24306808401366	582.17933	-202.36723448543972	346.57588325350116	502.05541	-279.04879847312367	
237	3.933	0.0	1249.97763	7.653905517926474E-14	140.0138376772609	1317.10648	108.87571938028262	60.88526302279979	1322.89857	-164.11984898768387	117.23266779791794	1400.20069	91.00702306716238	52.06350930440719	1404.95318	-133.5430633355682	-57.475499682810536	1215.59638	76.82766564103684	-90.0600745994389	1217.97262	-35.44737506032843	-54.13133193372305	1296.98267	16.678857190584058	20.37636756321478	1380.44818	-4.698783893186365	105.30692282584822	1466.88399	-27.347140723103788	185.68272521296458	1543.14651	-48.938134156705196	448.61959301884497	1517.37913	-105.14944837951161	357.33187965045926	1645.32492	-92.43081071868285	274.27232334622795	1607.00802	-72.13203914562635	337.4173775960791	1460.20081	-77.69040135306177	411.38484922238706	1668.71606	-103.92444031723637	684.8500495844052	1664.55763	-135.4505014462547	590.4858742494789	1640.72095	-56.512075351824606	577.741918007766	1655.72098	-200.03325565174347	575.5323667922597	1704.06266	-121.65160068456085	446.13308316082134	1601.9585	80.93983302810621	377.196030778126	1607.60208	-282.0348497210282	470.26069231086876	1314.58172	73.6050881150604	437.5985607014123	1312.13122	18.04863954614049	389.9412944144515	1309.90349	-281.5359938950041	356.2814812603349	1304.55695	-226.79984733879903	548.6741962870076	1067.60105	45.907935228883595	597.7798108491611	1089.80406	40.90417587033961	429.05323013224904	1306.41339	50.67140625940265	444.1080815229684	1053.78914	-254.4643012497223	493.70384820471764	1070.71987	-268.18832898284376	348.38714187297523	1303.14605	-249.36415042769994	739.1853645631328	1039.45743	145.43869236533072	661.2191333697842	1013.6158	97.50952606687198	607.2191852582595	1049.77923	51.584459802115994	583.3396310633832	989.03654	-406.36281907026415	527.7715500554882	980.05138	-329.72007948548674	496.23197796251816	1028.8386	-275.38897817148114	51.91929469435563	1223.54194	169.8261236962349	249.24083770565733	826.41247	146.47162577277268	241.1192192285788	819.95206	61.18206161476286	285.9151763588343	847.42736	95.2765678914831	-26.9013058277949	1240.62118	-176.47531151631043	346.24548829209107	1032.69999	-297.93201761339674	378.29379301707417	1029.58117	-218.29254969351717	381.90209415051345	1074.95255	-261.2255505856424	290.6340507994454	776.6599	107.0042576058065	109.10578790749614	410.94138	176.51897194438274	111.05382591563449	403.44136	111.36259113921179	396.7750796278353	983.61574	-269.01597709259784	166.27825726776388	640.39726	-243.89338978177605	186.69750416778407	637.50122	-181.68612286490435	26.33856853340528	369.50566	141.5093411015072	155.55618076127462	263.83714	112.10417149010401	151.96096140142606	266.36189	191.40071408571706	171.1659777118491	250.76781	151.89903007587534	60.60105313903591	347.52542	143.79875697100843	241.3185540307419	190.76769	157.07460360969978	117.29496630823304	570.74366	-196.03212111793937	279.60665072887633	525.07526	-213.1042851965794	253.83805467173158	528.71388	-288.17496758588567	287.5296976448626	520.76832	-256.9759850058195	155.29308093560223	564.50603	-209.420946244369	370.8347789708325	494.33263	-286.90795839105664	
238	3.95	0.0	1249.97763	7.653905517926474E-14	139.1625371515748	1317.40351	109.75615514328102	61.89697669282812	1322.75005	-163.79296846688493	116.36414383951583	1400.42347	91.62027069070568	52.817987448749435	1404.87892	-133.36469781476924	-57.95284073418272	1215.59638	76.46632459455182	-89.72591459943891	1217.82411	-36.02615715818565	-54.304363505894166	1296.90842	16.235976664897965	20.27493151672975	1380.44818	-4.67161150695537	105.31420230504929	1466.95825	-26.914209150932674	185.77155283162074	1543.22077	-48.20088810533303	448.8515930286193	1517.30488	-103.47208418379718	357.67526466023355	1645.32492	-90.94637100216944	274.4698714905702	1607.08228	-70.98904256856805	337.5406657404214	1460.20081	-76.41878268303341	411.7183039389005	1668.71606	-102.27426082826103	685.2279087801196	1664.85466	-133.43169277133921	590.7994223987083	1640.79521	-54.53039667690912	578.1568985432264	1655.8695	-198.07876302331297	575.8459062812351	1704.13692	-119.66992700964538	445.9321602586786	1601.80999	82.62448170302166	378.07379340655643	1607.82485	-280.58487919045496	470.77249388792706	1314.58172	74.50080178020161	438.0732372784706	1312.13122	19.008655597512696	390.85884651719584	1310.12626	-280.74900075554905	357.07041627010926	1304.6312	-226.087122859598	549.601706003521	1067.74956	46.52918127536862	598.6430095191895	1090.02683	41.48829191682464	429.5650367093073	1306.33913	51.567111264289814	445.22122757922773	1054.01191	-254.1646067754084	494.779864260977	1071.0169	-267.8243234620449	349.2403879292346	1303.29457	-248.61429594849884	740.122814572907	1039.60595	145.89418131884568	662.1565783795585	1013.83857	97.96502368064097	608.1195139282877	1049.92775	52.10426480211596	584.4527771196426	989.48209	-406.06312459595034	528.8846961117476	980.42266	-329.42038501117287	497.3080026790316	1029.13563	-275.0249676506822	50.96922259649843	1223.69046	170.13505684057716	261.32844423923854	833.39268	145.73333711470863	254.57987181841932	827.52633	60.29330742612553	297.96298841810153	856.1155	95.20126528479122	-26.56981030210882	1239.06177	-176.4554186092805	342.84297066366065	1022.97225	-295.00898420730647	374.9927164351287	1020.59601	-215.3966973339119	379.27661704776915	1065.29906	-259.05433084958037	300.34417208593993	782.22922	106.5224941899419	98.27185266748663	428.09488	179.09575822599012	99.64838805696884	420.07506	114.03814899299032	395.90122672080537	976.04147	-267.2053794592802	181.87781223894817	621.90713	-249.3779315673309	202.39849518545347	618.71405	-187.1978370366903	13.713205963113403	389.33243	145.10973053723117	138.5318734549208	278.24311	116.93761670837497	135.47102671372835	282.32727	196.1996987783019	153.8645369727792	265.24803	156.9154644800864	47.099887131140854	366.08981	147.5794624581046	221.64692618404044	202.72316	162.78048250777334	135.49478518675804	549.58026	-202.1590321040959	299.30084961717563	510.00097	-219.74033828548025	273.39368251354585	513.63959	-294.7195285818165	307.38964862613193	506.51087	-263.60208914120534	173.65863824684325	544.90203	-215.53790461675646	391.60765838970497	483.41676	-293.77868096404575	
